<mxfile host="app.diagrams.net" modified="2024-04-25T05:50:49.312Z" agent="Mozilla/5.0 (Windows NT 10.0; Win64; x64; rv:125.0) Gecko/20100101 Firefox/125.0" etag="bX8z7GtO9EHaaLLHAR9A" version="24.2.8" type="device">
  <diagram name="Page-1" id="FFdWXpvmiv87uPKqFJBm">
    <mxGraphModel dx="1005" dy="432" grid="1" gridSize="10" guides="1" tooltips="1" connect="1" arrows="0" fold="1" page="1" pageScale="1" pageWidth="827" pageHeight="1169" math="0" shadow="0">
      <root>
        <mxCell id="0" />
        <mxCell id="1" parent="0" />
        <mxCell id="6FerpBXWkYx7A1IfpYaI-2" value="Autors" style="swimlane;fontStyle=0;childLayout=stackLayout;horizontal=1;startSize=26;fillColor=none;horizontalStack=0;resizeParent=1;resizeParentMax=0;resizeLast=0;collapsible=1;marginBottom=0;whiteSpace=wrap;html=1;" parent="1" vertex="1">
          <mxGeometry x="130" y="110" width="140" height="130" as="geometry" />
        </mxCell>
        <mxCell id="6FerpBXWkYx7A1IfpYaI-3" value="+ id: integer (PK)" style="text;strokeColor=none;fillColor=none;align=left;verticalAlign=top;spacingLeft=4;spacingRight=4;overflow=hidden;rotatable=0;points=[[0,0.5],[1,0.5]];portConstraint=eastwest;whiteSpace=wrap;html=1;" parent="6FerpBXWkYx7A1IfpYaI-2" vertex="1">
          <mxGeometry y="26" width="140" height="26" as="geometry" />
        </mxCell>
        <mxCell id="6FerpBXWkYx7A1IfpYaI-4" value="+ lietotajvards: string" style="text;strokeColor=none;fillColor=none;align=left;verticalAlign=top;spacingLeft=4;spacingRight=4;overflow=hidden;rotatable=0;points=[[0,0.5],[1,0.5]];portConstraint=eastwest;whiteSpace=wrap;html=1;" parent="6FerpBXWkYx7A1IfpYaI-2" vertex="1">
          <mxGeometry y="52" width="140" height="26" as="geometry" />
        </mxCell>
        <mxCell id="6FerpBXWkYx7A1IfpYaI-5" value="+ parole: string" style="text;strokeColor=none;fillColor=none;align=left;verticalAlign=top;spacingLeft=4;spacingRight=4;overflow=hidden;rotatable=0;points=[[0,0.5],[1,0.5]];portConstraint=eastwest;whiteSpace=wrap;html=1;" parent="6FerpBXWkYx7A1IfpYaI-2" vertex="1">
          <mxGeometry y="78" width="140" height="26" as="geometry" />
        </mxCell>
        <mxCell id="6FerpBXWkYx7A1IfpYaI-6" value="+ epasts: string" style="text;strokeColor=none;fillColor=none;align=left;verticalAlign=top;spacingLeft=4;spacingRight=4;overflow=hidden;rotatable=0;points=[[0,0.5],[1,0.5]];portConstraint=eastwest;whiteSpace=wrap;html=1;" parent="6FerpBXWkYx7A1IfpYaI-2" vertex="1">
          <mxGeometry y="104" width="140" height="26" as="geometry" />
        </mxCell>
        <mxCell id="6FerpBXWkYx7A1IfpYaI-8" value="Ieraksts" style="swimlane;fontStyle=0;childLayout=stackLayout;horizontal=1;startSize=26;fillColor=none;horizontalStack=0;resizeParent=1;resizeParentMax=0;resizeLast=0;collapsible=1;marginBottom=0;whiteSpace=wrap;html=1;" parent="1" vertex="1">
          <mxGeometry x="310" y="110" width="150" height="182" as="geometry" />
        </mxCell>
        <mxCell id="6FerpBXWkYx7A1IfpYaI-9" value="+ id: integer (PK)" style="text;strokeColor=none;fillColor=none;align=left;verticalAlign=top;spacingLeft=4;spacingRight=4;overflow=hidden;rotatable=0;points=[[0,0.5],[1,0.5]];portConstraint=eastwest;whiteSpace=wrap;html=1;" parent="6FerpBXWkYx7A1IfpYaI-8" vertex="1">
          <mxGeometry y="26" width="150" height="26" as="geometry" />
        </mxCell>
        <mxCell id="6FerpBXWkYx7A1IfpYaI-10" value="+ autors: autors.id" style="text;strokeColor=none;fillColor=none;align=left;verticalAlign=top;spacingLeft=4;spacingRight=4;overflow=hidden;rotatable=0;points=[[0,0.5],[1,0.5]];portConstraint=eastwest;whiteSpace=wrap;html=1;" parent="6FerpBXWkYx7A1IfpYaI-8" vertex="1">
          <mxGeometry y="52" width="150" height="26" as="geometry" />
        </mxCell>
        <mxCell id="6FerpBXWkYx7A1IfpYaI-11" value="+ nosaukums: string" style="text;strokeColor=none;fillColor=none;align=left;verticalAlign=top;spacingLeft=4;spacingRight=4;overflow=hidden;rotatable=0;points=[[0,0.5],[1,0.5]];portConstraint=eastwest;whiteSpace=wrap;html=1;" parent="6FerpBXWkYx7A1IfpYaI-8" vertex="1">
          <mxGeometry y="78" width="150" height="26" as="geometry" />
        </mxCell>
        <mxCell id="6FerpBXWkYx7A1IfpYaI-12" value="+ teksts: string" style="text;strokeColor=none;fillColor=none;align=left;verticalAlign=top;spacingLeft=4;spacingRight=4;overflow=hidden;rotatable=0;points=[[0,0.5],[1,0.5]];portConstraint=eastwest;whiteSpace=wrap;html=1;" parent="6FerpBXWkYx7A1IfpYaI-8" vertex="1">
          <mxGeometry y="104" width="150" height="26" as="geometry" />
        </mxCell>
        <mxCell id="6FerpBXWkYx7A1IfpYaI-13" value="+ izveidots: string" style="text;strokeColor=none;fillColor=none;align=left;verticalAlign=top;spacingLeft=4;spacingRight=4;overflow=hidden;rotatable=0;points=[[0,0.5],[1,0.5]];portConstraint=eastwest;whiteSpace=wrap;html=1;" parent="6FerpBXWkYx7A1IfpYaI-8" vertex="1">
          <mxGeometry y="130" width="150" height="26" as="geometry" />
        </mxCell>
        <mxCell id="6FerpBXWkYx7A1IfpYaI-14" value="+ redzams: integer" style="text;strokeColor=none;fillColor=none;align=left;verticalAlign=top;spacingLeft=4;spacingRight=4;overflow=hidden;rotatable=0;points=[[0,0.5],[1,0.5]];portConstraint=eastwest;whiteSpace=wrap;html=1;" parent="6FerpBXWkYx7A1IfpYaI-8" vertex="1">
          <mxGeometry y="156" width="150" height="26" as="geometry" />
        </mxCell>
        <mxCell id="6FerpBXWkYx7A1IfpYaI-15" style="edgeStyle=orthogonalEdgeStyle;rounded=0;orthogonalLoop=1;jettySize=auto;html=1;exitX=0;exitY=0.5;exitDx=0;exitDy=0;entryX=1;entryY=0.5;entryDx=0;entryDy=0;" parent="1" source="6FerpBXWkYx7A1IfpYaI-10" target="6FerpBXWkYx7A1IfpYaI-3" edge="1">
          <mxGeometry relative="1" as="geometry" />
        </mxCell>
        <mxCell id="6FerpBXWkYx7A1IfpYaI-16" value="Komentars" style="swimlane;fontStyle=0;childLayout=stackLayout;horizontal=1;startSize=26;fillColor=none;horizontalStack=0;resizeParent=1;resizeParentMax=0;resizeLast=0;collapsible=1;marginBottom=0;whiteSpace=wrap;html=1;" parent="1" vertex="1">
          <mxGeometry x="500" y="110" width="180" height="156" as="geometry" />
        </mxCell>
        <mxCell id="6FerpBXWkYx7A1IfpYaI-17" value="+ id: integer (PK)" style="text;strokeColor=none;fillColor=none;align=left;verticalAlign=top;spacingLeft=4;spacingRight=4;overflow=hidden;rotatable=0;points=[[0,0.5],[1,0.5]];portConstraint=eastwest;whiteSpace=wrap;html=1;" parent="6FerpBXWkYx7A1IfpYaI-16" vertex="1">
          <mxGeometry y="26" width="180" height="26" as="geometry" />
        </mxCell>
        <mxCell id="6FerpBXWkYx7A1IfpYaI-18" value="+ ieraksts: ieraksts.id" style="text;strokeColor=none;fillColor=none;align=left;verticalAlign=top;spacingLeft=4;spacingRight=4;overflow=hidden;rotatable=0;points=[[0,0.5],[1,0.5]];portConstraint=eastwest;whiteSpace=wrap;html=1;" parent="6FerpBXWkYx7A1IfpYaI-16" vertex="1">
          <mxGeometry y="52" width="180" height="26" as="geometry" />
        </mxCell>
        <mxCell id="6FerpBXWkYx7A1IfpYaI-19" value="+ autors: string" style="text;strokeColor=none;fillColor=none;align=left;verticalAlign=top;spacingLeft=4;spacingRight=4;overflow=hidden;rotatable=0;points=[[0,0.5],[1,0.5]];portConstraint=eastwest;whiteSpace=wrap;html=1;" parent="6FerpBXWkYx7A1IfpYaI-16" vertex="1">
          <mxGeometry y="78" width="180" height="26" as="geometry" />
        </mxCell>
        <mxCell id="6FerpBXWkYx7A1IfpYaI-22" value="+ teksts: string" style="text;strokeColor=none;fillColor=none;align=left;verticalAlign=top;spacingLeft=4;spacingRight=4;overflow=hidden;rotatable=0;points=[[0,0.5],[1,0.5]];portConstraint=eastwest;whiteSpace=wrap;html=1;" parent="6FerpBXWkYx7A1IfpYaI-16" vertex="1">
          <mxGeometry y="104" width="180" height="26" as="geometry" />
        </mxCell>
        <mxCell id="6FerpBXWkYx7A1IfpYaI-23" value="+ redzams: integer" style="text;strokeColor=none;fillColor=none;align=left;verticalAlign=top;spacingLeft=4;spacingRight=4;overflow=hidden;rotatable=0;points=[[0,0.5],[1,0.5]];portConstraint=eastwest;whiteSpace=wrap;html=1;" parent="6FerpBXWkYx7A1IfpYaI-16" vertex="1">
          <mxGeometry y="130" width="180" height="26" as="geometry" />
        </mxCell>
        <mxCell id="6FerpBXWkYx7A1IfpYaI-21" style="edgeStyle=orthogonalEdgeStyle;rounded=0;orthogonalLoop=1;jettySize=auto;html=1;exitX=0;exitY=0.5;exitDx=0;exitDy=0;entryX=1;entryY=0.5;entryDx=0;entryDy=0;" parent="1" source="6FerpBXWkYx7A1IfpYaI-18" target="6FerpBXWkYx7A1IfpYaI-9" edge="1">
          <mxGeometry relative="1" as="geometry" />
        </mxCell>
        <mxCell id="6FerpBXWkYx7A1IfpYaI-24" value="Dati (autors):&lt;br&gt;&lt;br&gt;1, &#39;admin&#39;, &#39;parole&#39;, &#39;admin@mail.com&#39;&lt;br&gt;2, &#39;user&#39;, &#39;parole123&#39;, &#39;user@mail.com&#39;" style="rounded=0;whiteSpace=wrap;html=1;" parent="1" vertex="1">
          <mxGeometry x="30" y="350" width="240" height="90" as="geometry" />
        </mxCell>
        <mxCell id="6FerpBXWkYx7A1IfpYaI-25" value="ON DELETE CASCADE" style="text;html=1;align=center;verticalAlign=middle;resizable=0;points=[];autosize=1;strokeColor=none;fillColor=none;" parent="1" vertex="1">
          <mxGeometry x="215" y="80" width="150" height="30" as="geometry" />
        </mxCell>
        <mxCell id="6FerpBXWkYx7A1IfpYaI-26" value="ON DELETE CASCADE" style="text;html=1;align=center;verticalAlign=middle;resizable=0;points=[];autosize=1;strokeColor=none;fillColor=none;" parent="1" vertex="1">
          <mxGeometry x="410" y="80" width="150" height="30" as="geometry" />
        </mxCell>
        <mxCell id="6FerpBXWkYx7A1IfpYaI-27" value="Dati (ieraksts):&lt;br&gt;1,1, &#39;Sveika pasaule&#39;, &#39;:)&#39;, NULL, 1&lt;br&gt;2,2, &#39;Otrais raksts&#39;, &#39;:X&#39;, NULL, 0" style="rounded=0;whiteSpace=wrap;html=1;" parent="1" vertex="1">
          <mxGeometry x="279" y="350" width="270" height="90" as="geometry" />
        </mxCell>
        <mxCell id="6FerpBXWkYx7A1IfpYaI-28" value="Dati (komentars):&lt;br&gt;1, 1, &#39;Janis&#39;, &#39;Sveiks!&#39;, 1&lt;br&gt;2,1, &#39;spam&#39;, &#39;buy coin&#39;, 0&lt;br&gt;2,2, &#39;user&#39;, &#39;Test&#39;, 1" style="rounded=0;whiteSpace=wrap;html=1;" parent="1" vertex="1">
          <mxGeometry x="560" y="350" width="220" height="90" as="geometry" />
        </mxCell>
        <mxCell id="6FerpBXWkYx7A1IfpYaI-29" value="1" style="text;html=1;align=center;verticalAlign=middle;resizable=0;points=[];autosize=1;strokeColor=none;fillColor=none;" parent="1" vertex="1">
          <mxGeometry x="265" y="118" width="30" height="30" as="geometry" />
        </mxCell>
        <mxCell id="6FerpBXWkYx7A1IfpYaI-30" value="N" style="text;html=1;align=center;verticalAlign=middle;resizable=0;points=[];autosize=1;strokeColor=none;fillColor=none;" parent="1" vertex="1">
          <mxGeometry x="290" y="148" width="30" height="30" as="geometry" />
        </mxCell>
        <mxCell id="6FerpBXWkYx7A1IfpYaI-31" value="1" style="text;html=1;align=center;verticalAlign=middle;resizable=0;points=[];autosize=1;strokeColor=none;fillColor=none;" parent="1" vertex="1">
          <mxGeometry x="450" y="118" width="30" height="30" as="geometry" />
        </mxCell>
        <mxCell id="6FerpBXWkYx7A1IfpYaI-32" value="N" style="text;html=1;align=center;verticalAlign=middle;resizable=0;points=[];autosize=1;strokeColor=none;fillColor=none;" parent="1" vertex="1">
          <mxGeometry x="470" y="148" width="30" height="30" as="geometry" />
        </mxCell>
      </root>
    </mxGraphModel>
  </diagram>
</mxfile>
